<svg xmlns="http://www.w3.org/2000/svg" viewBox="0 0 64 64"><rect width="64" height="64" rx="14" fill="#4A2C2A"/><path d="M18 22h20a2 2 0 012 2v14a6 6 0 01-6 6H24a6 6 0 01-6-6V24a2 2 0 012-2z" fill="#F5E6D3"/><path d="M38 26h3a5 5 0 010 10h-3" stroke="#F5E6D3" stroke-width="2.5" fill="none" stroke-linecap="round"/><path d="M24 18c0-3 2-4 2-6" stroke="#D4A574" stroke-width="2" fill="none" stroke-linecap="round"/><path d="M28 16c0-3 2-4 2-6" stroke="#D4A574" stroke-width="2" fill="none" stroke-linecap="round"/><path d="M32 18c0-3 2-4 2-6" stroke="#D4A574" stroke-width="2" fill="none" stroke-linecap="round"/><ellipse cx="28" cy="30" rx="8" ry="3" fill="#C8956C" opacity="0.5"/></svg>
